<svg width="512" height="512" viewBox="0 0 512 512" fill="none" xmlns="http://www.w3.org/2000/svg">
<path d="M411.4 356.8L406.9 347.5C406.5 350.9 404.7 353.9 401.6 355.6C406.1 364 289.3 427.2 284.8 418.8C281.8 420.4 278.2 420.3 275.2 418.8L280.5 427.7C283.5 433.2 290 435.5 295 432.8C299.5 441.2 412.4 380 407.9 371.7C412.8 369 414.4 362.3 411.4 356.8Z" fill="white"/>
<path d="M435.9 130.6C409.6 81.9 348.7 63.8 300.1 90.2C294.5 93.2 289.4 96.7 284.6 100.6C255.6 84.2 219 82.6 187.5 99.7C157.1 116.2 138.6 146 135.5 178C129.1 179.9 122.7 182.6 116.6 185.9C67.9 212.2 49.8 273.1 76.2 321.7C102.5 370.4 163.4 388.5 212 362.1C217.7 359 223 355.4 227.9 351.4L267.4 403.4C270.2 408.7 276.6 410.8 281.6 408.1C286.5 417.1 399.4 356 394.5 347C399.5 344.3 401.2 337.8 398.4 332.5L377.4 274C383.5 272.1 389.6 269.6 395.5 266.4C444.1 240.1 462.2 179.2 435.9 130.6Z" fill="white"/>
</svg>
